<?xml version="1.0" encoding="utf-8" standalone="no"?>
<!DOCTYPE svg PUBLIC "-//W3C//DTD SVG 1.1//EN"
  "http://www.w3.org/Graphics/SVG/1.1/DTD/svg11.dtd">
<svg xmlns:xlink="http://www.w3.org/1999/xlink" width="950.4pt" height="360pt" viewBox="0 0 950.4 360" xmlns="http://www.w3.org/2000/svg" version="1.1">
 <metadata>
  <rdf:RDF xmlns:dc="http://purl.org/dc/elements/1.1/" xmlns:cc="http://creativecommons.org/ns#" xmlns:rdf="http://www.w3.org/1999/02/22-rdf-syntax-ns#">
   <cc:Work>
    <dc:type rdf:resource="http://purl.org/dc/dcmitype/StillImage"/>
    <dc:format>image/svg+xml</dc:format>
    <dc:creator>
     <cc:Agent>
      <dc:title>Matplotlib v3.11.1, https://matplotlib.org/</dc:title>
     </cc:Agent>
    </dc:creator>
   </cc:Work>
  </rdf:RDF>
 </metadata>
 <defs>
  <style type="text/css">*{stroke-linejoin: round; stroke-linecap: butt}</style>
 </defs>
 <g id="figure_1">
  <g id="patch_1">
   <path d="M 0 360
L 950.4 360
L 950.4 0
L 0 0
z
" style="fill: #f7fafb"/>
  </g>
  <g id="axes_1">
   <g id="patch_2">
    <path d="M 133.056 291.6
L 411.598373 291.6
L 411.598373 90
L 133.056 90
z
" style="fill: #ffffff"/>
   </g>
   <g id="patch_3">
    <path d="M 189.901382 282.436364
L 155.656472 282.436364
L 155.656472 254.041997
L 189.901382 254.041997
z
" clip-path="url(#p8385949222)" style="fill: #a4506d"/>
   </g>
   <g id="patch_4">
    <path d="M 189.901382 230.810243
L 345.182945 230.810243
L 345.182945 202.415877
L 189.901382 202.415877
z
" clip-path="url(#p8385949222)" style="fill: #aa6925"/>
   </g>
   <g id="patch_5">
    <path d="M 189.901382 179.184123
L 348.753426 179.184123
L 348.753426 150.789757
L 189.901382 150.789757
z
" clip-path="url(#p8385949222)" style="fill: #3566b5"/>
   </g>
   <g id="patch_6">
    <path d="M 189.901382 127.558003
L 356.227666 127.558003
L 356.227666 99.163636
L 189.901382 99.163636
z
" clip-path="url(#p8385949222)" style="fill: #007d79"/>
   </g>
   <g id="matplotlib.axis_1">
    <g id="xtick_1">
     <g id="line2d_1">
      <defs>
       <path id="m653200ad42" d="M 0 0
L 0 3.5
" style="stroke: #000000; stroke-width: 0.8"/>
      </defs>
      <g>
       <use xlink:href="#m653200ad42" x="133.056" y="291.6" style="stroke: #000000; stroke-width: 0.8"/>
      </g>
     </g>
     <g id="text_1">
      <text style="font-size: 10px; font-family: 'DejaVu Sans'; text-anchor: middle" x="133.056" y="306.197656" transform="rotate(-0 133.056 306.197656)">−0.2</text>
     </g>
    </g>
    <g id="xtick_2">
     <g id="line2d_2">
      <g>
       <use xlink:href="#m653200ad42" x="189.901382" y="291.6" style="stroke: #000000; stroke-width: 0.8"/>
      </g>
     </g>
     <g id="text_2">
      <text style="font-size: 10px; font-family: 'DejaVu Sans'; text-anchor: middle" x="189.901382" y="306.197656" transform="rotate(-0 189.901382 306.197656)">0.0</text>
     </g>
    </g>
    <g id="xtick_3">
     <g id="line2d_3">
      <g>
       <use xlink:href="#m653200ad42" x="246.746764" y="291.6" style="stroke: #000000; stroke-width: 0.8"/>
      </g>
     </g>
     <g id="text_3">
      <text style="font-size: 10px; font-family: 'DejaVu Sans'; text-anchor: middle" x="246.746764" y="306.197656" transform="rotate(-0 246.746764 306.197656)">0.2</text>
     </g>
    </g>
    <g id="xtick_4">
     <g id="line2d_4">
      <g>
       <use xlink:href="#m653200ad42" x="303.592147" y="291.6" style="stroke: #000000; stroke-width: 0.8"/>
      </g>
     </g>
     <g id="text_4">
      <text style="font-size: 10px; font-family: 'DejaVu Sans'; text-anchor: middle" x="303.592147" y="306.197656" transform="rotate(-0 303.592147 306.197656)">0.4</text>
     </g>
    </g>
    <g id="xtick_5">
     <g id="line2d_5">
      <g>
       <use xlink:href="#m653200ad42" x="360.437529" y="291.6" style="stroke: #000000; stroke-width: 0.8"/>
      </g>
     </g>
     <g id="text_5">
      <text style="font-size: 10px; font-family: 'DejaVu Sans'; text-anchor: middle" x="360.437529" y="306.197656" transform="rotate(-0 360.437529 306.197656)">0.6</text>
     </g>
    </g>
    <g id="text_6">
     <text style="font-size: 10px; font-family: 'DejaVu Sans'; text-anchor: middle" x="272.327186" y="320.198438" transform="rotate(-0 272.327186 320.198438)">Mean fold stability · higher is better</text>
    </g>
   </g>
   <g id="matplotlib.axis_2">
    <g id="ytick_1">
     <g id="line2d_6">
      <defs>
       <path id="m1393c649bd" d="M 0 0
L -3.5 0
" style="stroke: #000000; stroke-width: 0.8"/>
      </defs>
      <g>
       <use xlink:href="#m1393c649bd" x="133.056" y="268.239181" style="stroke: #000000; stroke-width: 0.8"/>
      </g>
     </g>
     <g id="text_7">
      <text style="font-size: 10px; font-family: 'DejaVu Sans'; text-anchor: end" x="126.056" y="272.038399" transform="rotate(-0 126.056 272.038399)">Logistic SGD</text>
     </g>
    </g>
    <g id="ytick_2">
     <g id="line2d_7">
      <g>
       <use xlink:href="#m1393c649bd" x="133.056" y="216.61306" style="stroke: #000000; stroke-width: 0.8"/>
      </g>
     </g>
     <g id="text_8">
      <text style="font-size: 10px; font-family: 'DejaVu Sans'; text-anchor: end" x="126.056" y="220.411888" transform="rotate(-0 126.056 220.411888)">CatBoost</text>
     </g>
    </g>
    <g id="ytick_3">
     <g id="line2d_8">
      <g>
       <use xlink:href="#m1393c649bd" x="133.056" y="164.98694" style="stroke: #000000; stroke-width: 0.8"/>
      </g>
     </g>
     <g id="text_9">
      <text style="font-size: 10px; font-family: 'DejaVu Sans'; text-anchor: end" x="126.056" y="168.785768" transform="rotate(-0 126.056 168.785768)">XGBoost</text>
     </g>
    </g>
    <g id="ytick_4">
     <g id="line2d_9">
      <g>
       <use xlink:href="#m1393c649bd" x="133.056" y="113.360819" style="stroke: #000000; stroke-width: 0.8"/>
      </g>
     </g>
     <g id="text_10">
      <text style="font-size: 10px; font-family: 'DejaVu Sans'; text-anchor: end" x="126.056" y="117.160038" transform="rotate(-0 126.056 117.160038)">LightGBM</text>
     </g>
    </g>
   </g>
   <g id="line2d_10">
    <path d="M 189.901382 291.6
L 189.901382 90
" clip-path="url(#p8385949222)" style="fill: none; stroke: #d3dfe4; stroke-linecap: square"/>
   </g>
   <g id="patch_7">
    <path d="M 133.056 291.6
L 133.056 90
" style="fill: none; stroke: #000000; stroke-width: 0.8; stroke-linejoin: miter; stroke-linecap: square"/>
   </g>
   <g id="patch_8">
    <path d="M 133.056 291.6
L 411.598373 291.6
" style="fill: none; stroke: #000000; stroke-width: 0.8; stroke-linejoin: miter; stroke-linecap: square"/>
   </g>
   <g id="text_11">
    <text style="font-weight: 700; font-size: 10px; font-family: 'DejaVu Sans'; text-anchor: start" x="197.007055" y="270.836837" transform="rotate(-0 197.007055 270.836837)">-0.1205</text>
   </g>
   <g id="text_12">
    <text style="font-weight: 700; font-size: 10px; font-family: 'DejaVu Sans'; text-anchor: start" x="352.288617" y="219.210716" transform="rotate(-0 352.288617 219.210716)">0.5463</text>
   </g>
   <g id="text_13">
    <text style="font-weight: 700; font-size: 10px; font-family: 'DejaVu Sans'; text-anchor: start" x="355.859099" y="167.584596" transform="rotate(-0 355.859099 167.584596)">0.5589</text>
   </g>
   <g id="text_14">
    <text style="font-weight: 700; font-size: 10px; font-family: 'DejaVu Sans'; text-anchor: start" x="363.333338" y="115.958476" transform="rotate(-0 363.333338 115.958476)">0.5852</text>
   </g>
   <g id="text_15">
    <text style="font-weight: 700; font-size: 12px; font-family: 'DejaVu Sans'; text-anchor: start" x="133.056" y="72" transform="rotate(-0 133.056 72)">Predeclared selection objective</text>
   </g>
  </g>
  <g id="axes_2">
   <g id="patch_9">
    <path d="M 531.928678 291.6
L 921.888 291.6
L 921.888 90
L 531.928678 90
z
" style="fill: #ffffff"/>
   </g>
   <g id="matplotlib.axis_3">
    <g id="xtick_6">
     <g id="line2d_11">
      <g>
       <use xlink:href="#m653200ad42" x="567.834023" y="291.6" style="stroke: #000000; stroke-width: 0.8"/>
      </g>
     </g>
     <g id="text_16">
      <text style="font-size: 10px; font-family: 'DejaVu Sans'; text-anchor: middle" x="567.834023" y="306.197656" transform="rotate(-0 567.834023 306.197656)">35</text>
     </g>
    </g>
    <g id="xtick_7">
     <g id="line2d_12">
      <g>
       <use xlink:href="#m653200ad42" x="613.283828" y="291.6" style="stroke: #000000; stroke-width: 0.8"/>
      </g>
     </g>
     <g id="text_17">
      <text style="font-size: 10px; font-family: 'DejaVu Sans'; text-anchor: middle" x="613.283828" y="306.197656" transform="rotate(-0 613.283828 306.197656)">40</text>
     </g>
    </g>
    <g id="xtick_8">
     <g id="line2d_13">
      <g>
       <use xlink:href="#m653200ad42" x="658.733632" y="291.6" style="stroke: #000000; stroke-width: 0.8"/>
      </g>
     </g>
     <g id="text_18">
      <text style="font-size: 10px; font-family: 'DejaVu Sans'; text-anchor: middle" x="658.733632" y="306.197656" transform="rotate(-0 658.733632 306.197656)">45</text>
     </g>
    </g>
    <g id="xtick_9">
     <g id="line2d_14">
      <g>
       <use xlink:href="#m653200ad42" x="704.183437" y="291.6" style="stroke: #000000; stroke-width: 0.8"/>
      </g>
     </g>
     <g id="text_19">
      <text style="font-size: 10px; font-family: 'DejaVu Sans'; text-anchor: middle" x="704.183437" y="306.197656" transform="rotate(-0 704.183437 306.197656)">50</text>
     </g>
    </g>
    <g id="xtick_10">
     <g id="line2d_15">
      <g>
       <use xlink:href="#m653200ad42" x="749.633241" y="291.6" style="stroke: #000000; stroke-width: 0.8"/>
      </g>
     </g>
     <g id="text_20">
      <text style="font-size: 10px; font-family: 'DejaVu Sans'; text-anchor: middle" x="749.633241" y="306.197656" transform="rotate(-0 749.633241 306.197656)">55</text>
     </g>
    </g>
    <g id="xtick_11">
     <g id="line2d_16">
      <g>
       <use xlink:href="#m653200ad42" x="795.083046" y="291.6" style="stroke: #000000; stroke-width: 0.8"/>
      </g>
     </g>
     <g id="text_21">
      <text style="font-size: 10px; font-family: 'DejaVu Sans'; text-anchor: middle" x="795.083046" y="306.197656" transform="rotate(-0 795.083046 306.197656)">60</text>
     </g>
    </g>
    <g id="xtick_12">
     <g id="line2d_17">
      <g>
       <use xlink:href="#m653200ad42" x="840.53285" y="291.6" style="stroke: #000000; stroke-width: 0.8"/>
      </g>
     </g>
     <g id="text_22">
      <text style="font-size: 10px; font-family: 'DejaVu Sans'; text-anchor: middle" x="840.53285" y="306.197656" transform="rotate(-0 840.53285 306.197656)">65</text>
     </g>
    </g>
    <g id="xtick_13">
     <g id="line2d_18">
      <g>
       <use xlink:href="#m653200ad42" x="885.982654" y="291.6" style="stroke: #000000; stroke-width: 0.8"/>
      </g>
     </g>
     <g id="text_23">
      <text style="font-size: 10px; font-family: 'DejaVu Sans'; text-anchor: middle" x="885.982654" y="306.197656" transform="rotate(-0 885.982654 306.197656)">70</text>
     </g>
    </g>
    <g id="text_24">
     <text style="font-size: 10px; font-family: 'DejaVu Sans'; text-anchor: middle" x="726.908339" y="320.198438" transform="rotate(-0 726.908339 320.198438)">Development week</text>
    </g>
   </g>
   <g id="matplotlib.axis_4">
    <g id="ytick_5">
     <g id="line2d_19">
      <path d="M 531.928678 291.6
L 921.888 291.6
" clip-path="url(#p455e2d0f9f)" style="fill: none; stroke: #b0b0b0; stroke-opacity: 0.18; stroke-width: 0.8; stroke-linecap: square"/>
     </g>
     <g id="line2d_20">
      <g>
       <use xlink:href="#m1393c649bd" x="531.928678" y="291.6" style="stroke: #000000; stroke-width: 0.8"/>
      </g>
     </g>
     <g id="text_25">
      <text style="font-size: 10px; font-family: 'DejaVu Sans'; text-anchor: end" x="524.928678" y="295.398828" transform="rotate(-0 524.928678 295.398828)">0.0</text>
     </g>
    </g>
    <g id="ytick_6">
     <g id="line2d_21">
      <path d="M 531.928678 267.014634
L 921.888 267.014634
" clip-path="url(#p455e2d0f9f)" style="fill: none; stroke: #b0b0b0; stroke-opacity: 0.18; stroke-width: 0.8; stroke-linecap: square"/>
     </g>
     <g id="line2d_22">
      <g>
       <use xlink:href="#m1393c649bd" x="531.928678" y="267.014634" style="stroke: #000000; stroke-width: 0.8"/>
      </g>
     </g>
     <g id="text_26">
      <text style="font-size: 10px; font-family: 'DejaVu Sans'; text-anchor: end" x="524.928678" y="270.813462" transform="rotate(-0 524.928678 270.813462)">0.1</text>
     </g>
    </g>
    <g id="ytick_7">
     <g id="line2d_23">
      <path d="M 531.928678 242.429268
L 921.888 242.429268
" clip-path="url(#p455e2d0f9f)" style="fill: none; stroke: #b0b0b0; stroke-opacity: 0.18; stroke-width: 0.8; stroke-linecap: square"/>
     </g>
     <g id="line2d_24">
      <g>
       <use xlink:href="#m1393c649bd" x="531.928678" y="242.429268" style="stroke: #000000; stroke-width: 0.8"/>
      </g>
     </g>
     <g id="text_27">
      <text style="font-size: 10px; font-family: 'DejaVu Sans'; text-anchor: end" x="524.928678" y="246.228096" transform="rotate(-0 524.928678 246.228096)">0.2</text>
     </g>
    </g>
    <g id="ytick_8">
     <g id="line2d_25">
      <path d="M 531.928678 217.843902
L 921.888 217.843902
" clip-path="url(#p455e2d0f9f)" style="fill: none; stroke: #b0b0b0; stroke-opacity: 0.18; stroke-width: 0.8; stroke-linecap: square"/>
     </g>
     <g id="line2d_26">
      <g>
       <use xlink:href="#m1393c649bd" x="531.928678" y="217.843902" style="stroke: #000000; stroke-width: 0.8"/>
      </g>
     </g>
     <g id="text_28">
      <text style="font-size: 10px; font-family: 'DejaVu Sans'; text-anchor: end" x="524.928678" y="221.642731" transform="rotate(-0 524.928678 221.642731)">0.3</text>
     </g>
    </g>
    <g id="ytick_9">
     <g id="line2d_27">
      <path d="M 531.928678 193.258537
L 921.888 193.258537
" clip-path="url(#p455e2d0f9f)" style="fill: none; stroke: #b0b0b0; stroke-opacity: 0.18; stroke-width: 0.8; stroke-linecap: square"/>
     </g>
     <g id="line2d_28">
      <g>
       <use xlink:href="#m1393c649bd" x="531.928678" y="193.258537" style="stroke: #000000; stroke-width: 0.8"/>
      </g>
     </g>
     <g id="text_29">
      <text style="font-size: 10px; font-family: 'DejaVu Sans'; text-anchor: end" x="524.928678" y="197.057365" transform="rotate(-0 524.928678 197.057365)">0.4</text>
     </g>
    </g>
    <g id="ytick_10">
     <g id="line2d_29">
      <path d="M 531.928678 168.673171
L 921.888 168.673171
" clip-path="url(#p455e2d0f9f)" style="fill: none; stroke: #b0b0b0; stroke-opacity: 0.18; stroke-width: 0.8; stroke-linecap: square"/>
     </g>
     <g id="line2d_30">
      <g>
       <use xlink:href="#m1393c649bd" x="531.928678" y="168.673171" style="stroke: #000000; stroke-width: 0.8"/>
      </g>
     </g>
     <g id="text_30">
      <text style="font-size: 10px; font-family: 'DejaVu Sans'; text-anchor: end" x="524.928678" y="172.471999" transform="rotate(-0 524.928678 172.471999)">0.5</text>
     </g>
    </g>
    <g id="ytick_11">
     <g id="line2d_31">
      <path d="M 531.928678 144.087805
L 921.888 144.087805
" clip-path="url(#p455e2d0f9f)" style="fill: none; stroke: #b0b0b0; stroke-opacity: 0.18; stroke-width: 0.8; stroke-linecap: square"/>
     </g>
     <g id="line2d_32">
      <g>
       <use xlink:href="#m1393c649bd" x="531.928678" y="144.087805" style="stroke: #000000; stroke-width: 0.8"/>
      </g>
     </g>
     <g id="text_31">
      <text style="font-size: 10px; font-family: 'DejaVu Sans'; text-anchor: end" x="524.928678" y="147.886633" transform="rotate(-0 524.928678 147.886633)">0.6</text>
     </g>
    </g>
    <g id="ytick_12">
     <g id="line2d_33">
      <path d="M 531.928678 119.502439
L 921.888 119.502439
" clip-path="url(#p455e2d0f9f)" style="fill: none; stroke: #b0b0b0; stroke-opacity: 0.18; stroke-width: 0.8; stroke-linecap: square"/>
     </g>
     <g id="line2d_34">
      <g>
       <use xlink:href="#m1393c649bd" x="531.928678" y="119.502439" style="stroke: #000000; stroke-width: 0.8"/>
      </g>
     </g>
     <g id="text_32">
      <text style="font-size: 10px; font-family: 'DejaVu Sans'; text-anchor: end" x="524.928678" y="123.301267" transform="rotate(-0 524.928678 123.301267)">0.7</text>
     </g>
    </g>
    <g id="ytick_13">
     <g id="line2d_35">
      <path d="M 531.928678 94.917073
L 921.888 94.917073
" clip-path="url(#p455e2d0f9f)" style="fill: none; stroke: #b0b0b0; stroke-opacity: 0.18; stroke-width: 0.8; stroke-linecap: square"/>
     </g>
     <g id="line2d_36">
      <g>
       <use xlink:href="#m1393c649bd" x="531.928678" y="94.917073" style="stroke: #000000; stroke-width: 0.8"/>
      </g>
     </g>
     <g id="text_33">
      <text style="font-size: 10px; font-family: 'DejaVu Sans'; text-anchor: end" x="524.928678" y="98.715901" transform="rotate(-0 524.928678 98.715901)">0.8</text>
     </g>
    </g>
    <g id="text_34">
     <text style="font-size: 10px; font-family: 'DejaVu Sans'; text-anchor: middle" x="502.623209" y="190.8" transform="rotate(-90 502.623209 190.8)">Weekly normalized Gini</text>
    </g>
   </g>
   <g id="line2d_37">
    <path d="M 549.654102 118.294715
L 558.744063 120.516566
L 567.834023 119.068917
L 576.923984 120.512819
L 586.013945 121.149542
L 595.103906 128.864594
L 604.193867 123.101721
L 613.283828 121.965823
L 622.373789 126.269522
L 631.46375 126.613533
L 640.553711 127.261443
L 649.643671 117.849713
L 658.733632 125.846469
L 667.823593 133.158664
L 676.913554 115.093092
L 686.003515 126.357936
L 695.093476 119.078137
L 704.183437 122.728694
L 713.273398 115.28772
L 722.363359 115.451057
L 731.453319 118.504815
L 740.54328 127.287301
L 749.633241 122.182604
L 758.723202 120.344692
L 767.813163 122.276724
L 776.903124 115.782342
L 785.993085 120.200713
L 795.083046 126.749323
L 804.173007 127.344037
L 813.262967 121.926598
L 822.352928 111.005934
L 831.442889 123.964606
L 840.53285 114.079226
L 849.622811 133.946278
L 858.712772 117.015885
L 867.802733 109.757991
L 876.892694 142.2443
L 885.982654 96.168824
L 895.072615 106.243382
L 904.162576 115.533499
" clip-path="url(#p455e2d0f9f)" style="fill: none; stroke: #007d79; stroke-width: 1.9; stroke-linecap: square"/>
   </g>
   <g id="line2d_38">
    <path d="M 549.654102 116.708832
L 558.744063 120.802217
L 567.834023 120.455488
L 576.923984 120.749969
L 586.013945 120.620709
L 595.103906 129.870945
L 604.193867 124.143897
L 613.283828 121.741851
L 622.373789 126.116224
L 631.46375 125.933011
L 640.553711 126.958668
L 649.643671 117.198282
L 658.733632 126.745075
L 667.823593 133.406435
L 676.913554 116.340671
L 686.003515 127.080769
L 695.093476 119.031159
L 704.183437 123.620507
L 713.273398 115.995622
L 722.363359 115.523655
L 731.453319 119.167802
L 740.54328 126.171248
L 749.633241 123.09334
L 758.723202 122.075367
L 767.813163 120.593667
L 776.903124 115.4557
L 785.993085 120.7212
L 795.083046 125.152281
L 804.173007 127.161712
L 813.262967 121.772542
L 822.352928 111.846762
L 831.442889 124.005676
L 840.53285 114.637939
L 849.622811 133.954774
L 858.712772 118.054868
L 867.802733 113.602184
L 876.892694 142.062674
L 885.982654 95.259542
L 895.072615 106.506348
L 904.162576 115.526634
" clip-path="url(#p455e2d0f9f)" style="fill: none; stroke: #3566b5; stroke-width: 1.9; stroke-linecap: square"/>
   </g>
   <g id="line2d_39">
    <path d="M 549.654102 119.995756
L 558.744063 121.174795
L 567.834023 122.489694
L 576.923984 123.866906
L 586.013945 127.397915
L 595.103906 132.986375
L 604.193867 128.614736
L 613.283828 122.225381
L 622.373789 128.622036
L 631.46375 128.548906
L 640.553711 130.579244
L 649.643671 118.124351
L 658.733632 127.93949
L 667.823593 133.639129
L 676.913554 118.253549
L 686.003515 128.474073
L 695.093476 120.064065
L 704.183437 124.923074
L 713.273398 117.703785
L 722.363359 118.711303
L 731.453319 119.440741
L 740.54328 127.797312
L 749.633241 125.546932
L 758.723202 123.130692
L 767.813163 123.10443
L 776.903124 118.599591
L 785.993085 122.352719
L 795.083046 127.240031
L 804.173007 128.664598
L 813.262967 123.941311
L 822.352928 112.829682
L 831.442889 127.337884
L 840.53285 116.549133
L 849.622811 132.531714
L 858.712772 116.105316
L 867.802733 111.27237
L 876.892694 144.342081
L 885.982654 98.207868
L 895.072615 106.141658
L 904.162576 113.650699
" clip-path="url(#p455e2d0f9f)" style="fill: none; stroke: #aa6925; stroke-width: 1.9; stroke-linecap: square"/>
   </g>
   <g id="line2d_40">
    <path d="M 549.654102 203.073531
L 558.744063 203.697182
L 567.834023 203.278565
L 576.923984 215.719795
L 586.013945 208.577421
L 595.103906 220.260136
L 604.193867 219.163449
L 613.283828 211.124719
L 622.373789 195.08404
L 631.46375 192.576356
L 640.553711 197.794842
L 649.643671 186.649758
L 658.733632 194.010841
L 667.823593 200.505809
L 676.913554 192.495008
L 686.003515 199.185233
L 695.093476 188.876724
L 704.183437 190.167766
L 713.273398 179.54774
L 722.363359 194.215987
L 731.453319 196.82992
L 740.54328 195.041163
L 749.633241 195.418372
L 758.723202 195.745852
L 767.813163 191.517853
L 776.903124 178.282992
L 785.993085 188.449936
L 795.083046 182.743134
L 804.173007 195.96341
L 813.262967 194.890491
L 822.352928 193.452176
L 831.442889 208.939866
L 840.53285 182.312427
L 849.622811 207.142497
L 858.712772 207.220596
L 867.802733 201.93127
L 876.892694 227.526845
L 885.982654 195.75206
L 895.072615 183.02774
L 904.162576 183.935259
" clip-path="url(#p455e2d0f9f)" style="fill: none; stroke: #a4506d; stroke-width: 1.9; stroke-linecap: square"/>
   </g>
   <g id="patch_10">
    <path d="M 531.928678 291.6
L 531.928678 90
" style="fill: none; stroke: #000000; stroke-width: 0.8; stroke-linejoin: miter; stroke-linecap: square"/>
   </g>
   <g id="patch_11">
    <path d="M 531.928678 291.6
L 921.888 291.6
" style="fill: none; stroke: #000000; stroke-width: 0.8; stroke-linejoin: miter; stroke-linecap: square"/>
   </g>
   <g id="text_35">
    <text style="font-weight: 700; font-size: 12px; font-family: 'DejaVu Sans'; text-anchor: start" x="531.928678" y="72" transform="rotate(-0 531.928678 72)">Performance through time</text>
   </g>
   <g id="legend_1">
    <g id="line2d_41">
     <path d="M 831.866906 237.685781
L 840.866906 237.685781
L 849.866906 237.685781
" style="fill: none; stroke: #007d79; stroke-width: 1.9; stroke-linecap: square"/>
    </g>
    <g id="text_36">
     <text style="font-size: 9px; font-family: 'DejaVu Sans'; text-anchor: start" x="857.066906" y="240.835781" transform="rotate(-0 857.066906 240.835781)">LightGBM</text>
    </g>
    <g id="line2d_42">
     <path d="M 831.866906 251.186484
L 840.866906 251.186484
L 849.866906 251.186484
" style="fill: none; stroke: #3566b5; stroke-width: 1.9; stroke-linecap: square"/>
    </g>
    <g id="text_37">
     <text style="font-size: 9px; font-family: 'DejaVu Sans'; text-anchor: start" x="857.066906" y="254.336484" transform="rotate(-0 857.066906 254.336484)">XGBoost</text>
    </g>
    <g id="line2d_43">
     <path d="M 831.866906 264.687188
L 840.866906 264.687188
L 849.866906 264.687188
" style="fill: none; stroke: #aa6925; stroke-width: 1.9; stroke-linecap: square"/>
    </g>
    <g id="text_38">
     <text style="font-size: 9px; font-family: 'DejaVu Sans'; text-anchor: start" x="857.066906" y="267.837188" transform="rotate(-0 857.066906 267.837188)">CatBoost</text>
    </g>
    <g id="line2d_44">
     <path d="M 831.866906 278.187891
L 840.866906 278.187891
L 849.866906 278.187891
" style="fill: none; stroke: #a4506d; stroke-width: 1.9; stroke-linecap: square"/>
    </g>
    <g id="text_39">
     <text style="font-size: 9px; font-family: 'DejaVu Sans'; text-anchor: start" x="857.066906" y="281.337891" transform="rotate(-0 857.066906 281.337891)">Logistic SGD</text>
    </g>
   </g>
  </g>
  <g id="text_40">
   <text style="font-weight: 700; font-size: 17px; font-family: 'DejaVu Sans'; text-anchor: start; fill: #143543" x="57.024" y="23.716016" transform="rotate(-0 57.024 23.716016)">HOME CREDIT   /   TEMPORAL MODEL BENCHMARK</text>
  </g>
  <g id="text_41">
   <text style="font-size: 10px; font-family: 'DejaVu Sans'; text-anchor: start; fill: #526a79" x="57.024" y="41.4" transform="rotate(-0 57.024 41.4)">20 verified model folds  ·  727,187 OOF cases per model  ·  Final holdout pending</text>
  </g>
  <g id="text_42">
   <text style="font-size: 9px; font-family: 'DejaVu Sans'; text-anchor: start; fill: #526a79" x="57.024" y="340.2" transform="rotate(-0 57.024 340.2)">Development scores reflect early stopping and model selection. Pooled OOF scores do not replace final holdout evaluation.</text>
  </g>
 </g>
 <defs>
  <clipPath id="p8385949222">
   <rect x="133.056" y="90" width="278.542373" height="201.6"/>
  </clipPath>
  <clipPath id="p455e2d0f9f">
   <rect x="531.928678" y="90" width="389.959322" height="201.6"/>
  </clipPath>
 </defs>
</svg>
